<?xml version="1.0" encoding="UTF-8" standalone="no"?>
<!-- Created with Inkscape (http://www.inkscape.org/) -->

<svg
   width="158.0135mm"
   height="55.121346mm"
   viewBox="0 0 158.0135 55.121346"
   version="1.1"
   id="svg5"
   xml:space="preserve"
   xmlns:inkscape="http://www.inkscape.org/namespaces/inkscape"
   xmlns:sodipodi="http://sodipodi.sourceforge.net/DTD/sodipodi-0.dtd"
   xmlns="http://www.w3.org/2000/svg"
   xmlns:svg="http://www.w3.org/2000/svg"><sodipodi:namedview
     id="namedview7"
     pagecolor="#ffffff"
     bordercolor="#000000"
     borderopacity="0.25"
     inkscape:showpageshadow="2"
     inkscape:pageopacity="0.0"
     inkscape:pagecheckerboard="0"
     inkscape:deskcolor="#d1d1d1"
     inkscape:document-units="mm"
     showgrid="false" /><defs
     id="defs2" /><g
     inkscape:label="Layer 1"
     inkscape:groupmode="layer"
     id="layer1"
     transform="translate(-15.704345,-95.705953)"><path
       style="opacity:1;fill:#f9e2af;fill-opacity:1;stroke:#000000;stroke-width:0;stroke-linejoin:bevel"
       d="m 15.704346,97.314521 54.60345,-0.204851 c 0.42829,0.186096 0.71819,0.46082 0.7674,0.889686 0.6312,3.160064 1.32753,6.238014 3.37998,7.770194 3.13791,2.34251 8.06078,3.17917 13.71279,2.99559 1.53614,-3.87687 1.59009,-8.47723 1.76877,-13.016695 l 2.31624,8.500945 c 1.42644,-0.47454 2.91142,-0.54496 4.48753,0.0136 l 2.1223,-8.557035 c 0.41262,4.628955 -0.11318,10.044325 2.155384,13.117975 4.98303,-0.15474 9.67761,-0.85792 13.04504,-2.66821 2.42538,-1.30384 2.87507,-4.93898 3.79182,-8.120591 0.0753,-0.436507 0.3842,-0.748742 0.87372,-0.964911 l 54.98909,0.04563 c -15.41063,4.522972 -25.72031,11.186112 -27.77894,20.812342 -0.64798,3.03 -0.1,6.22113 1.06121,9.5999 -19.80297,0.20015 -46.57589,-3.30451 -52.614714,23.2992 -6.33097,-24.48521 -29.30612,-23.96562 -52.397873,-23.27086 4.52111,-15.52424 -7.427116,-24.82511 -26.283197,-30.241927 z"
       id="path356"
       sodipodi:nodetypes="cccsccccccscccscccc" /></g></svg>
