<?xml version="1.0" encoding="UTF-8" standalone="no"?>
<!-- Created with Inkscape (http://www.inkscape.org/) -->

<svg
   width="61.572762mm"
   height="61.170933mm"
   viewBox="0 0 61.572762 61.170933"
   version="1.1"
   id="svg5"
   xml:space="preserve"
   sodipodi:docname="tf_autobot_logo.svg"
   xmlns:inkscape="http://www.inkscape.org/namespaces/inkscape"
   xmlns:sodipodi="http://sodipodi.sourceforge.net/DTD/sodipodi-0.dtd"
   xmlns="http://www.w3.org/2000/svg"
   xmlns:svg="http://www.w3.org/2000/svg"><sodipodi:namedview
     id="namedview7"
     pagecolor="#ffffff"
     bordercolor="#000000"
     borderopacity="0.25"
     inkscape:showpageshadow="2"
     inkscape:pageopacity="0.0"
     inkscape:pagecheckerboard="0"
     inkscape:deskcolor="#d1d1d1"
     inkscape:document-units="mm"
     showgrid="false"><inkscape:grid
       type="xygrid"
       id="grid967" /></sodipodi:namedview><defs
     id="defs2" /><g
     inkscape:groupmode="layer"
     id="layer2"
     inkscape:label="Layer 2"
     transform="translate(-34.814479,-31.750965)"><path
       style="fill:#f38ba8;fill-opacity:1;stroke:#000000;stroke-width:0;stroke-linejoin:bevel"
       d="m 57.638289,92.902588 16.00866,0.01931 -3.32984,-8.281572 -9.33848,-0.03015 z"
       id="path911"
       inkscape:export-filename="../.config/awesome/themes/catppuccin/tf_autobot_logo.svg"
       inkscape:export-xdpi="96"
       inkscape:export-ydpi="96" /><path
       style="fill:#f38ba8;fill-opacity:1;stroke:#000000;stroke-width:0;stroke-linejoin:bevel"
       d="m 53.100429,89.021221 0.17525,-21.390099 7.39038,-3.417734 0.17955,14.563217 9.57384,0.02808 0.22504,-14.493933 7.40757,3.302132 0.13275,21.509431 -3.90588,3.350247 -3.52561,-8.952561 -10.27222,-0.03151 -3.4315,9.035338 c -1.34462,-1.132819 -2.63785,-2.330447 -3.94917,-3.502608 z"
       id="path1032"
       sodipodi:nodetypes="ccccccccccccc" /><path
       style="fill:#f38ba8;fill-opacity:1;stroke:#000000;stroke-width:0;stroke-linejoin:bevel"
       d="m 52.400939,88.485173 -10.29034,-8.384038 -1.27816,-23.265643 7.18738,4.859999 -0.0889,2.938889 4.51718,2.49307 z"
       id="path1081" /><path
       style="fill:#f38ba8;fill-opacity:1;stroke:#000000;stroke-width:0;stroke-linejoin:bevel"
       d="m 78.884299,88.485173 10.29034,-8.384038 1.27816,-23.265643 -7.18738,4.859999 0.0889,2.938889 -4.51718,2.49307 z"
       id="path1083" /><path
       style="fill:#f38ba8;fill-opacity:1;stroke:#000000;stroke-width:0;stroke-linejoin:bevel"
       d="m 61.578249,77.963768 h 8.17224 V 63.556835 l 2.02223,-12.701495 -6.11668,3.909804 -6.13647,-4.003263 2.04604,12.689555 z"
       id="path1085" /><path
       style="fill:#f38ba8;fill-opacity:1;stroke:#000000;stroke-width:0;stroke-linejoin:bevel"
       d="m 65.656039,53.523523 17.57603,-11.57596 0.91744,-5.981014 c 0,0 -6.47453,-4.422472 -18.49347,-4.129796 -9.77496,-0.792143 -18.591,4.162277 -18.591,4.162277 l 1.00678,5.99352 z"
       id="path1096"
       sodipodi:nodetypes="ccccccc" /><path
       id="path1199"
       style="fill:#f38ba8;fill-opacity:1;stroke:#000000;stroke-width:0;stroke-linejoin:bevel"
       d="m 34.814479,35.336247 4.28191,19.36316 8.69094,6.22546 12.7987,2.086177 -1.85932,-12.835909 -11.21068,-7.745264 -1.38648,-6.318477 z m 7.09724,8.072377 12.59251,8.517308 0.0248,1.184941 -12.49227,-8.43101 z m 0.79426,5.249808 12.07317,8.184514 0.0398,1.090888 -11.88558,-8.049121 z" /><path
       id="path1204"
       style="fill:#f38ba8;fill-opacity:1;stroke:#000000;stroke-width:0;stroke-linejoin:bevel"
       d="m 96.387241,35.336247 -4.281912,19.36316 -8.69094,6.22546 -12.7987,2.086177 1.85932,-12.835909 11.21068,-7.745264 1.38648,-6.318477 z m -7.097242,8.072377 -12.59251,8.517308 -0.0248,1.184941 12.49227,-8.43101 z m -0.79426,5.249808 -12.07317,8.184514 -0.0398,1.090888 11.88558,-8.049121 z" /></g></svg>
