<?xml version="1.0" encoding="UTF-8" standalone="no"?>
<!-- Created with Inkscape (http://www.inkscape.org/) -->

<svg
   width="55.625614mm"
   height="60.922665mm"
   viewBox="0 0 55.625614 60.922665"
   version="1.1"
   id="svg5"
   xml:space="preserve"
   sodipodi:docname="tf_decepticon_logo.svg"
   xmlns:inkscape="http://www.inkscape.org/namespaces/inkscape"
   xmlns:sodipodi="http://sodipodi.sourceforge.net/DTD/sodipodi-0.dtd"
   xmlns="http://www.w3.org/2000/svg"
   xmlns:svg="http://www.w3.org/2000/svg"><sodipodi:namedview
     id="namedview7"
     pagecolor="#ffffff"
     bordercolor="#000000"
     borderopacity="0.25"
     inkscape:showpageshadow="2"
     inkscape:pageopacity="0.0"
     inkscape:pagecheckerboard="0"
     inkscape:deskcolor="#d1d1d1"
     inkscape:document-units="mm"
     showgrid="false"><inkscape:grid
       type="xygrid"
       id="grid967" /></sodipodi:namedview><defs
     id="defs2" /><g
     inkscape:label="Layer 1"
     inkscape:groupmode="layer"
     id="layer1"
     transform="translate(-103.45869,-32.585061)"><path
       style="fill:#89b4fa;fill-opacity:1;stroke:#000000;stroke-width:0;stroke-linejoin:bevel"
       d="M 127.66778,90.667764 109.28457,61.19835 113.38423,84.740234 Z"
       id="path1228"
       inkscape:export-filename="../.config/awesome/themes/catppuccin/t.svg"
       inkscape:export-xdpi="96"
       inkscape:export-ydpi="96" /><path
       style="fill:#89b4fa;fill-opacity:1;stroke:#000000;stroke-width:0;stroke-linejoin:bevel"
       d="M 135.00073,90.667764 153.38395,61.19835 149.28428,84.740234 Z"
       id="path1230" /><path
       id="path1232"
       style="fill:#89b4fa;fill-opacity:1;stroke:#000000;stroke-width:0;stroke-linejoin:bevel"
       d="m 159.0843,32.803809 -7.97099,10.042077 -7.76232,2.105209 -1.3272,6.089944 8.92663,-2.222351 -0.0272,1.474587 -9.31913,2.437992 -0.72062,3.896293 -0.73224,0.827665 9.8722,-2.720355 -0.0815,1.604909 -11.68266,3.082588 -6.99595,7.784826 -7.31552,-7.908167 -11.29948,-2.950721 -0.1474,-1.624288 9.87296,2.589253 -0.65623,-0.769484 -0.72526,-3.817953 -9.34474,-2.500045 -0.14971,-1.507161 9.03524,2.261139 -1.40865,-6.107011 -7.48076,-1.988097 -8.18508,-10.077757 4.85194,23.716711 22.95964,36.984111 23.11477,-37.373498 z m -44.28568,28.647769 8.94216,2.442645 3.08569,5.819215 -8.59929,-4.695243 z m 33.02655,0 -3.42855,3.566617 -8.60008,4.695243 3.08648,-5.819215 z" /><path
       id="path1293"
       style="fill:#89b4fa;fill-opacity:1;stroke:#000000;stroke-width:0;stroke-linejoin:bevel"
       d="m 118.74069,32.585061 5.00319,23.814444 7.67467,9.059279 7.556,-8.867684 4.91709,-23.787291 -8.19361,10.482665 h -8.62954 z m 10.62383,15.236869 4.10728,7.8e-4 -2.05169,5.957296 z" /></g></svg>
