<?xml version="1.0" encoding="UTF-8" standalone="no"?>
<!-- Created with Inkscape (http://www.inkscape.org/) -->

<svg
   width="69.415268mm"
   height="61.170929mm"
   viewBox="0 0 69.415268 61.170929"
   version="1.1"
   id="svg5"
   xml:space="preserve"
   xmlns:inkscape="http://www.inkscape.org/namespaces/inkscape"
   xmlns:sodipodi="http://sodipodi.sourceforge.net/DTD/sodipodi-0.dtd"
   xmlns="http://www.w3.org/2000/svg"
   xmlns:svg="http://www.w3.org/2000/svg"><sodipodi:namedview
     id="namedview7"
     pagecolor="#ffffff"
     bordercolor="#000000"
     borderopacity="0.25"
     inkscape:showpageshadow="2"
     inkscape:pageopacity="0.0"
     inkscape:pagecheckerboard="0"
     inkscape:deskcolor="#d1d1d1"
     inkscape:document-units="mm"
     showgrid="false"
     showguides="true" /><defs
     id="defs2" /><g
     inkscape:label="Layer 1"
     inkscape:groupmode="layer"
     id="layer1"
     transform="translate(-63.627275,-235.82906)"><path
       style="opacity:1;fill:#cdd6f4;fill-opacity:1;stroke:#000000;stroke-width:0;stroke-linejoin:bevel;image-rendering:auto"
       d="m 97.436262,297 -1.909291,-4.02753 v -36.64046 l -5.128976,5.63334 3.175585,-8.67065 -7.27185,2.51156 6.949839,-6.56986 c 0.633664,2.30584 1.976745,3.96351 4.148683,4.86386 z"
       id="path924"
       sodipodi:nodetypes="ccccccccc" /><path
       style="opacity:1;fill:#cdd6f4;fill-opacity:1;stroke:#000000;stroke-width:0;stroke-linejoin:bevel"
       d="m 99.233557,297 1.909293,-4.02753 v -36.64046 l 5.12898,5.63334 -3.17559,-8.67065 7.27185,2.51156 -6.94984,-6.56986 c -0.63366,2.30584 -1.97674,3.96351 -4.148683,4.86386 z"
       id="path1022"
       sodipodi:nodetypes="ccccccccc" /><path
       style="opacity:1;fill:#cdd6f4;fill-opacity:1;stroke:#000000;stroke-width:0;stroke-linejoin:bevel"
       d="m 97.436262,243.77742 v -5.37128 l -2.551615,-2.57707 1.486404,2.57452 -32.743778,0.27417 c 0.43306,3.16812 2.252385,5.70769 5.240543,7.71729 l 27.535858,-5.62496 v 1.15403 l -21.110746,9.04149 c 2.043692,2.0354 4.832905,3.28368 8.501342,3.60368 z"
       id="path1037"
       sodipodi:nodetypes="ccccccccccc" /><path
       style="opacity:1;fill:#cdd6f4;fill-opacity:1;stroke:#000000;stroke-width:0;stroke-linejoin:bevel"
       d="m 99.233557,243.77742 v -5.37128 l 2.551613,-2.57707 -1.4864,2.57452 32.74378,0.27417 c -0.43306,3.16812 -2.25239,5.70769 -5.24055,7.71729 l -27.53586,-5.62496 v 1.15403 l 21.11075,9.04149 c -2.04369,2.0354 -4.83291,3.28368 -8.50134,3.60368 z"
       id="path1039"
       sodipodi:nodetypes="ccccccccccc" /></g></svg>
